<?xml version="1.0" encoding="iso-8859-1"?>
<!-- Uploaded to: SVG Repo, www.svgrepo.com, Generator: SVG Repo Mixer Tools -->
<svg fill="#000000" height="800px" width="800px" version="1.1" id="Layer_1" xmlns="http://www.w3.org/2000/svg" xmlns:xlink="http://www.w3.org/1999/xlink" 
	 viewBox="0 0 512 512" xml:space="preserve">
<g>
	<g>
		<path d="M475.899,270.981c-3.064-0.665-5.276-3.283-5.502-6.514c-1.464-20.899-16.797-38.595-37.286-43.037l-15.799-3.425
			c-0.002,0-0.004-0.001-0.006-0.002c-0.002-0.001-0.004-0.001-0.006-0.001l-240.554-52.153l-18.685-49.554
			c-0.907-2.406-2.972-4.189-5.487-4.734l-34.768-7.538c-5.885-1.276-9.636-7.103-8.359-12.988
			c2.713-12.507-0.211-25.498-8.021-35.64L78.846,26.074c-1.799-2.337-4.789-3.417-7.67-2.77c-2.878,0.648-5.118,2.906-5.745,5.789
			l-18.666,86.094l-12.656-2.744c-4.834-1.046-9.797-0.145-13.976,2.544c-4.178,2.689-7.055,6.832-8.105,11.667
			c-1.049,4.835-0.145,9.798,2.545,13.977c2.69,4.178,6.834,7.055,11.669,8.104l17.93,3.887c0.065,1.347,0.48,2.693,1.293,3.89
			l46.622,68.645c9.995,14.714,25.073,24.894,42.456,28.663l68.747,14.904c-2.486,2.262-4.942,4.497-6.808,6.199
			c-0.165,0.15-0.318,0.291-0.476,0.436c-0.57-0.066-1.143-0.121-1.721-0.153c-15.028-0.812-27.949,10.776-28.758,25.824
			c-0.392,7.289,2.079,14.296,6.956,19.727c4.877,5.431,11.578,8.638,18.868,9.03c0.501,0.027,1.002,0.04,1.501,0.04
			c6.745,0,13.168-2.455,18.225-6.996c5.43-4.877,8.638-11.578,9.03-18.867c0.392-7.29-2.078-14.296-6.955-19.728
			c-0.663-0.739-1.363-1.433-2.092-2.088c1.254-1.141,2.592-2.359,3.96-3.602c0.942,2.198,2.063,4.338,3.385,6.391
			c6.16,9.569,15.642,16.16,26.699,18.556l15.477,3.355c0.001,0,0.002,0,0.002,0.001c0,0.001,0.001,0,0.002,0l25.23,5.47
			c0.532,0.115,1.07,0.172,1.606,0.172c1.444,0,2.87-0.412,4.103-1.206c1.69-1.089,2.879-2.803,3.306-4.768l3.716-17.144
			l97.497,21.138c-0.246,0.206-0.492,0.41-0.732,0.626c-5.432,4.877-8.639,11.578-9.031,18.868
			c-0.809,15.048,10.776,27.948,25.825,28.758c0.501,0.027,1.002,0.04,1.5,0.04c6.745,0,13.168-2.455,18.226-6.997
			c5.431-4.877,8.638-11.578,9.03-18.867c0.255-4.747-0.726-9.279-2.657-13.286l25.921,5.619c1.928,0.418,3.854,0.619,5.752,0.619
			c12.486,0,23.752-8.692,26.504-21.38l0.276-1.275C499.829,288.619,490.514,274.149,475.899,270.981z M421.505,234.428l8.397,1.82
			c13.943,3.023,24.377,15.064,25.375,29.281c0.023,0.34,0.074,0.672,0.112,1.008l-39.012-8.458L421.505,234.428z M76.791,48.252
			l12.624,16.395c5.079,6.596,6.98,15.044,5.215,23.179c-3.046,14.055,5.91,27.968,19.965,31.015l30.737,6.664l13.771,36.521
			l-18.668-4.048c0.436-1.037,0.787-2.124,1.034-3.262c2.169-10.005-4.206-19.91-14.213-22.079l-65.673-14.238L76.791,48.252z
			 M29.455,133.918c-1.805-0.391-2.999-2.246-2.608-4.052c0.257-1.184,1.045-1.843,1.493-2.132c0.447-0.288,1.373-0.733,2.559-0.476
			l93.145,20.194c1.805,0.391,3,2.247,2.608,4.052c-0.39,1.803-2.242,2.994-4.048,2.609l-27.562-5.976c-0.002,0-0.004,0-0.006-0.001
			L29.455,133.918z M204.973,303.149c-0.175,3.246-1.603,6.231-4.021,8.403c-2.419,2.172-5.526,3.272-8.784,3.097
			c-3.246-0.174-6.23-1.602-8.402-4.021c-2.171-2.419-3.272-5.539-3.097-8.785c0.349-6.479,5.731-11.517,12.146-11.517
			c0.218,0,0.44,0.006,0.66,0.018c3.246,0.174,6.23,1.602,8.402,4.021C204.048,296.784,205.147,299.904,204.973,303.149z
			 M212.576,252.953c-0.158,0.727-0.293,1.453-0.412,2.182l-74.406-16.131c-13.564-2.941-25.329-10.884-33.128-22.365
			l-40.548-59.701l55.307,11.991c0.003,0.001,0.005,0.001,0.008,0.001l73.909,16.024c-5.628,2.18-10.096,7.047-11.468,13.376
			c-2.169,10.005,4.206,19.91,14.213,22.079l33.133,7.183C220.671,233.745,214.807,242.665,212.576,252.953z M256.391,290.43
			l-8.072-1.749c-7.099-1.54-13.194-5.783-17.162-11.946c-2.488-3.868-3.942-8.183-4.298-12.616
			c-0.001-0.036-0.004-0.072-0.006-0.108c-0.005-0.062-0.006-0.123-0.011-0.185c-0.002-0.024-0.002-0.049-0.004-0.073
			c-0.169-2.515,0.008-5.063,0.556-7.587c1.538-7.099,5.781-13.194,11.945-17.162c4.495-2.894,9.597-4.388,14.784-4.388
			c1.924,0,3.862,0.206,5.784,0.623l8.071,1.75L256.391,290.43z M285.342,278.746c0,0.003-0.002,0.006-0.002,0.009
			c0,0.003-0.001,0.006-0.001,0.009l-3.714,17.134l-10.418-2.256l11.586-53.442l10.416,2.258L285.342,278.746z M199.262,205.593
			c-1.805-0.391-3-2.247-2.609-4.051c0.342-1.574,1.794-2.682,3.357-2.682c0.23,0,0.463,0.023,0.695,0.074l130.282,28.245
			c1.805,0.391,3,2.247,2.609,4.051c-0.392,1.805-2.252,3.001-4.052,2.609h-0.001L199.262,205.593z M425.727,332.127
			c-0.175,3.245-1.603,6.23-4.021,8.402c-2.42,2.172-5.531,3.268-8.784,3.098c-6.701-0.36-11.859-6.105-11.499-12.805
			c0.175-3.246,1.603-6.23,4.021-8.402c2.253-2.022,5.113-3.116,8.117-3.116c0.222,0,0.444,0.006,0.668,0.018
			C420.929,319.681,426.088,325.426,425.727,332.127z M481.846,300.026l-0.276,1.274c-1.398,6.447-7.782,10.552-14.227,9.158
			l-165.58-35.898l6.467-29.831l18.103,3.924c1.322,0.286,2.638,0.423,3.938,0.423c8.545-0.001,16.259-5.95,18.143-14.635
			c1.371-6.327-0.681-12.608-4.9-16.924l63.176,13.697l-6.734,31.059c-0.425,1.965-0.054,4.018,1.034,5.708
			c1.087,1.691,2.803,2.879,4.768,3.306l66.932,14.511C479.135,287.197,483.243,293.579,481.846,300.026z"/>
	</g>
</g>
<g>
	<g>
		<path d="M504.42,441.556H149.823v-82.753h4.702c4.187,0,7.58-3.394,7.58-7.58v-23.261c0-4.186-3.393-7.58-7.58-7.58H7.58
			c-4.187,0-7.58,3.394-7.58,7.58v23.261c0,4.186,3.393,7.58,7.58,7.58h4.702v82.753H7.58c-4.187,0-7.58,3.394-7.58,7.58v32.165
			c0,4.186,3.393,7.58,7.58,7.58h496.84c4.187,0,7.58-3.394,7.58-7.58v-32.165C512,444.95,508.606,441.556,504.42,441.556z
			 M15.16,335.543h131.785v8.101h-4.702H19.862H15.16V335.543z M113.56,385.604H49.071c-4.187,0-7.58,3.394-7.58,7.58v48.373H27.443
			v-82.753h107.22v82.753H121.14v-48.373C121.14,388.997,117.747,385.604,113.56,385.604z M105.981,400.765v40.529h-49.33v-40.529
			H105.981z M496.84,473.721H15.16v-17.005h4.702h122.381H496.84V473.721z"/>
	</g>
</g>
</svg>