<svg width="181" height="51" viewBox="0 0 181 51" fill="none" xmlns="http://www.w3.org/2000/svg">
<path d="M30.8948 7.73024L41.6153 7.54891L29.6133 0.482422L30.8948 7.73024Z" fill="#212429"/>
<path d="M14.6623 49.9368L0.75 43.2129L13.5757 42.996L14.6623 49.9368Z" fill="#212429"/>
<path d="M29.6111 0.48042L50.8929 41.1546L44.6575 49.424L23.6319 8.55906L29.6111 0.48042Z" fill="url(#paint0_linear_1201_1377)"/>
<path d="M21.2633 12.3842L35.825 41.4097L29.8491 49.6747L14.9 20.1654L21.2633 12.3842Z" fill="url(#paint1_linear_1201_1377)"/>
<path d="M12.1738 24.918L20.781 42.3646L14.6663 49.9344L6.18094 32.244L12.1738 24.918Z" fill="url(#paint2_linear_1201_1377)"/>
<path d="M65.832 31.6646V2.92578H88.414V8.09967H71.8869V14.8733H82.8652V19.885H71.8869V31.6702H65.832V31.6646Z" fill="#212429"/>
<path d="M94.3397 7.72475C93.4471 7.72475 92.6853 7.41152 92.0428 6.77947C91.4004 6.14741 91.082 5.3979 91.082 4.51973C91.082 3.61361 91.4004 2.8585 92.0428 2.24322C92.6853 1.62795 93.4471 1.32031 94.3397 1.32031C95.2607 1.32031 96.0283 1.62795 96.6537 2.24322C97.279 2.8585 97.5917 3.6192 97.5917 4.51973C97.5917 5.3979 97.279 6.14741 96.6537 6.77947C96.0283 7.41152 95.2607 7.72475 94.3397 7.72475ZM91.5027 31.6645V10.2753H97.2222V31.6701H91.5027V31.6645Z" fill="#212429"/>
<path d="M101.684 31.6647V10.2755H107.403V12.043C109.046 10.5943 111.076 9.86719 113.498 9.86719C115.192 9.86719 116.693 10.2308 117.983 10.9579C119.28 11.685 120.286 12.6807 121.008 13.956C121.73 15.2313 122.094 16.7135 122.094 18.4139V31.6758H116.374V19.2361C116.374 17.8378 115.971 16.7359 115.163 15.9304C114.356 15.125 113.259 14.7167 111.866 14.7167C110.894 14.7167 110.03 14.9012 109.279 15.2704C108.529 15.6396 107.903 16.1654 107.403 16.8533V31.6758H101.684V31.6647Z" fill="#212429"/>
<path d="M126.434 31.6646V2.92575L132.153 1.98047V11.9982C133.876 10.6558 135.911 9.98462 138.248 9.98462C140.306 9.98462 142.171 10.4768 143.842 11.4613C145.513 12.4457 146.838 13.7658 147.827 15.4214C148.817 17.077 149.311 18.9341 149.311 20.9868C149.311 23.0396 148.811 24.8966 147.81 26.5523C146.81 28.2079 145.457 29.5224 143.762 30.4956C142.063 31.4689 140.175 31.9555 138.088 31.9555C137.003 31.9555 135.945 31.8045 134.916 31.5024C133.887 31.2004 132.938 30.7641 132.079 30.188V31.6646H126.434ZM137.327 27.1899C138.521 27.1899 139.601 26.9158 140.562 26.3677C141.522 25.8195 142.279 25.0812 142.836 24.1527C143.393 23.2242 143.671 22.167 143.671 20.9924C143.671 19.8178 143.393 18.7551 142.836 17.8098C142.279 16.8645 141.522 16.1262 140.562 15.5948C139.601 15.0634 138.521 14.7949 137.327 14.7949C136.269 14.7949 135.303 14.9683 134.427 15.3095C133.552 15.6507 132.79 16.1653 132.153 16.8477V25.1819C132.767 25.8139 133.523 26.3062 134.427 26.6585C135.331 27.0109 136.298 27.1899 137.327 27.1899Z" fill="#212429"/>
<path d="M155.609 7.72475C154.717 7.72475 153.955 7.41152 153.312 6.77947C152.67 6.14741 152.352 5.3979 152.352 4.51973C152.352 3.61361 152.67 2.8585 153.312 2.24322C153.949 1.62795 154.717 1.32031 155.609 1.32031C156.53 1.32031 157.298 1.62795 157.923 2.24322C158.549 2.8585 158.861 3.6192 158.861 4.51973C158.861 5.3979 158.549 6.14741 157.923 6.77947C157.298 7.41152 156.525 7.72475 155.609 7.72475ZM152.772 31.6645V10.2753H158.492V31.6701H152.772V31.6645Z" fill="#212429"/>
<path d="M161.828 31.6643V27.6818L172.761 14.9904H161.908V10.2695H180.061V14.252L169.128 26.9379H180.357V31.6587H161.828V31.6643Z" fill="#212429"/>
<path d="M66.4219 48.5192V38.6697H70.7967C71.4609 38.6697 72.0385 38.7776 72.5294 38.9933C73.0203 39.2091 73.4005 39.5139 73.67 39.9079C73.9395 40.2925 74.0743 40.7475 74.0743 41.2728C74.0743 41.7512 73.9491 42.1733 73.6989 42.5392C73.4486 42.905 73.0973 43.1958 72.6449 43.4115C73.2128 43.6085 73.6556 43.9087 73.9732 44.3121C74.3005 44.7061 74.4641 45.1704 74.4641 45.7051C74.4641 46.2773 74.3197 46.7745 74.031 47.1966C73.7518 47.6187 73.3475 47.947 72.8181 48.1815C72.2983 48.4067 71.6871 48.5192 70.9844 48.5192H66.4219ZM67.9379 42.8487H70.7101C71.278 42.8487 71.7304 42.7174 72.0673 42.4547C72.4042 42.1921 72.5727 41.8356 72.5727 41.3854C72.5727 40.9351 72.4042 40.5786 72.0673 40.316C71.7304 40.0533 71.278 39.922 70.7101 39.922H67.9379V42.8487ZM67.9379 47.2669H70.8689C71.5042 47.2669 72.0048 47.1215 72.3705 46.8308C72.7459 46.54 72.9336 46.146 72.9336 45.6488C72.9336 45.161 72.7459 44.7717 72.3705 44.4809C72.0048 44.1808 71.5042 44.0307 70.8689 44.0307H67.9379V47.2669Z" fill="#212429"/>
<path d="M78.6388 48.66C78.0709 48.66 77.5703 48.5427 77.1372 48.3082C76.704 48.0737 76.3671 47.7454 76.1265 47.3232C75.8858 46.8917 75.7655 46.3992 75.7655 45.8458V41.3572H77.1949V45.6066C77.1949 46.1694 77.3586 46.615 77.6858 46.9433C78.0227 47.2716 78.4703 47.4358 79.0286 47.4358C79.4233 47.4358 79.7746 47.3561 80.0826 47.1966C80.3906 47.0277 80.6409 46.7932 80.8334 46.4931V41.3572H82.2773V48.5192H80.8334V47.7876C80.2655 48.3692 79.534 48.66 78.6388 48.66Z" fill="#212429"/>
<path d="M86.5133 48.66C85.878 48.66 85.2812 48.5708 84.7229 48.3926C84.1742 48.205 83.6978 47.9423 83.2935 47.6046L84.0876 46.676C84.463 46.9668 84.848 47.1919 85.2427 47.3514C85.647 47.5015 86.0561 47.5765 86.47 47.5765C86.9897 47.5765 87.4133 47.478 87.7406 47.281C88.0678 47.084 88.2315 46.8261 88.2315 46.5071C88.2315 46.2445 88.1352 46.0381 87.9427 45.888C87.7502 45.7379 87.4518 45.6347 87.0475 45.5784L85.7192 45.3955C84.9876 45.2923 84.4389 45.0719 84.0732 44.7342C83.7074 44.3965 83.5245 43.9462 83.5245 43.3834C83.5245 42.9519 83.6448 42.5767 83.8855 42.2577C84.1261 41.9294 84.463 41.6761 84.8962 41.4979C85.3293 41.3103 85.8347 41.2165 86.4122 41.2165C86.9416 41.2165 87.4518 41.2915 87.9427 41.4416C88.4336 41.5917 88.9053 41.8262 89.3577 42.1452L88.6213 43.0738C88.217 42.8112 87.8224 42.6189 87.4373 42.4969C87.0619 42.375 86.6817 42.314 86.2967 42.314C85.8539 42.314 85.4978 42.4078 85.2283 42.5954C84.9587 42.7737 84.824 43.0082 84.824 43.299C84.824 43.5616 84.9154 43.768 85.0983 43.9181C85.2908 44.0588 85.6037 44.1573 86.0368 44.2136L87.3652 44.3965C88.0967 44.4997 88.6502 44.7201 89.0256 45.0578C89.401 45.3861 89.5887 45.8317 89.5887 46.3946C89.5887 46.8261 89.4539 47.2154 89.1844 47.5624C88.9149 47.9001 88.5491 48.1675 88.0871 48.3645C87.625 48.5615 87.1004 48.66 86.5133 48.66Z" fill="#212429"/>
<path d="M90.6982 48.5192V41.3572H92.142V48.5192H90.6982ZM91.4201 40.2034C91.1795 40.2034 90.9725 40.119 90.7993 39.9501C90.626 39.7719 90.5394 39.5655 90.5394 39.331C90.5394 39.0871 90.626 38.8854 90.7993 38.726C90.9725 38.5571 91.1795 38.4727 91.4201 38.4727C91.6704 38.4727 91.8821 38.5571 92.0554 38.726C92.2287 38.8854 92.3153 39.0871 92.3153 39.331C92.3153 39.5655 92.2287 39.7719 92.0554 39.9501C91.8821 40.119 91.6704 40.2034 91.4201 40.2034Z" fill="#212429"/>
<path d="M93.8425 48.5192V41.3572H95.2864V42.0889C95.8543 41.5073 96.5906 41.2165 97.4955 41.2165C98.0634 41.2165 98.5591 41.3338 98.9826 41.5683C99.4158 41.8028 99.7527 42.1311 99.9933 42.5532C100.244 42.9754 100.369 43.4631 100.369 44.0166V48.5192H98.9249V44.2558C98.9249 43.693 98.7612 43.2521 98.434 42.9331C98.1163 42.6048 97.6687 42.4407 97.0912 42.4407C96.7061 42.4407 96.3596 42.5204 96.0516 42.6799C95.7436 42.8393 95.4885 43.0692 95.2864 43.3693V48.5192H93.8425Z" fill="#212429"/>
<path d="M105.558 48.6459C104.836 48.6459 104.181 48.4817 103.594 48.1534C103.016 47.8251 102.554 47.3795 102.208 46.8167C101.871 46.2538 101.703 45.6254 101.703 44.9312C101.703 44.2464 101.866 43.6273 102.193 43.0738C102.521 42.511 102.964 42.0654 103.522 41.7371C104.08 41.3994 104.701 41.2306 105.384 41.2306C106.068 41.2306 106.674 41.3994 107.204 41.7371C107.733 42.0654 108.152 42.5157 108.46 43.0879C108.777 43.6508 108.936 44.2886 108.936 45.0015V45.3955H103.146C103.223 45.7895 103.373 46.1413 103.594 46.4508C103.825 46.7604 104.114 47.0043 104.46 47.1825C104.816 47.3608 105.202 47.4499 105.615 47.4499C105.972 47.4499 106.313 47.3983 106.641 47.2951C106.977 47.1825 107.257 47.0231 107.478 46.8167L108.402 47.7031C107.969 48.0221 107.521 48.2613 107.059 48.4208C106.607 48.5708 106.106 48.6459 105.558 48.6459ZM103.161 44.3402H107.507C107.449 43.965 107.314 43.6367 107.103 43.3553C106.9 43.0645 106.645 42.8393 106.337 42.6799C106.039 42.511 105.712 42.4266 105.356 42.4266C104.99 42.4266 104.653 42.5063 104.345 42.6658C104.037 42.8253 103.777 43.0504 103.565 43.3412C103.363 43.6226 103.228 43.9556 103.161 44.3402Z" fill="#212429"/>
<path d="M112.909 48.66C112.273 48.66 111.677 48.5708 111.118 48.3926C110.57 48.205 110.093 47.9423 109.689 47.6046L110.483 46.676C110.858 46.9668 111.243 47.1919 111.638 47.3514C112.042 47.5015 112.451 47.5765 112.865 47.5765C113.385 47.5765 113.809 47.478 114.136 47.281C114.463 47.084 114.627 46.8261 114.627 46.5071C114.627 46.2445 114.531 46.0381 114.338 45.888C114.146 45.7379 113.847 45.6347 113.443 45.5784L112.115 45.3955C111.383 45.2923 110.834 45.0719 110.469 44.7342C110.103 44.3965 109.92 43.9462 109.92 43.3834C109.92 42.9519 110.04 42.5767 110.281 42.2577C110.521 41.9294 110.858 41.6761 111.292 41.4979C111.725 41.3103 112.23 41.2165 112.808 41.2165C113.337 41.2165 113.847 41.2915 114.338 41.4416C114.829 41.5917 115.301 41.8262 115.753 42.1452L115.017 43.0738C114.612 42.8112 114.218 42.6189 113.833 42.4969C113.457 42.375 113.077 42.314 112.692 42.314C112.249 42.314 111.893 42.4078 111.624 42.5954C111.354 42.7737 111.219 43.0082 111.219 43.299C111.219 43.5616 111.311 43.768 111.494 43.9181C111.686 44.0588 111.999 44.1573 112.432 44.2136L113.761 44.3965C114.492 44.4997 115.046 44.7201 115.421 45.0578C115.796 45.3861 115.984 45.8317 115.984 46.3946C115.984 46.8261 115.849 47.2154 115.58 47.5624C115.31 47.9001 114.944 48.1675 114.482 48.3645C114.02 48.5615 113.496 48.66 112.909 48.66Z" fill="#212429"/>
<path d="M119.62 48.66C118.985 48.66 118.388 48.5708 117.83 48.3926C117.281 48.205 116.805 47.9423 116.401 47.6046L117.195 46.676C117.57 46.9668 117.955 47.1919 118.35 47.3514C118.754 47.5015 119.163 47.5765 119.577 47.5765C120.097 47.5765 120.52 47.478 120.848 47.281C121.175 47.084 121.338 46.8261 121.338 46.5071C121.338 46.2445 121.242 46.0381 121.05 45.888C120.857 45.7379 120.559 45.6347 120.155 45.5784L118.826 45.3955C118.095 45.2923 117.546 45.0719 117.18 44.7342C116.814 44.3965 116.632 43.9462 116.632 43.3834C116.632 42.9519 116.752 42.5767 116.993 42.2577C117.233 41.9294 117.57 41.6761 118.003 41.4979C118.436 41.3103 118.942 41.2165 119.519 41.2165C120.049 41.2165 120.559 41.2915 121.05 41.4416C121.541 41.5917 122.012 41.8262 122.465 42.1452L121.728 43.0738C121.324 42.8112 120.929 42.6189 120.544 42.4969C120.169 42.375 119.789 42.314 119.404 42.314C118.961 42.314 118.605 42.4078 118.335 42.5954C118.066 42.7737 117.931 43.0082 117.931 43.299C117.931 43.5616 118.022 43.768 118.205 43.9181C118.398 44.0588 118.711 44.1573 119.144 44.2136L120.472 44.3965C121.204 44.4997 121.757 44.7201 122.133 45.0578C122.508 45.3861 122.696 45.8317 122.696 46.3946C122.696 46.8261 122.561 47.2154 122.291 47.5624C122.022 47.9001 121.656 48.1675 121.194 48.3645C120.732 48.5615 120.207 48.66 119.62 48.66Z" fill="#212429"/>
<path d="M130.418 48.66C129.609 48.66 128.83 48.5052 128.079 48.1956C127.328 47.8861 126.664 47.4499 126.086 46.887L127.01 45.8458C127.559 46.3711 128.117 46.7604 128.685 47.0137C129.263 47.2669 129.864 47.3936 130.49 47.3936C130.981 47.3936 131.409 47.3279 131.775 47.1966C132.15 47.0559 132.439 46.8589 132.641 46.6056C132.844 46.3523 132.945 46.0662 132.945 45.7473C132.945 45.3064 132.786 44.9687 132.468 44.7342C132.15 44.4997 131.626 44.3215 130.894 44.1995L129.205 43.9322C128.281 43.7727 127.588 43.4819 127.126 43.0598C126.673 42.6377 126.447 42.0748 126.447 41.3713C126.447 40.8084 126.601 40.316 126.909 39.8938C127.217 39.4623 127.65 39.1293 128.209 38.8948C128.777 38.6603 129.431 38.5431 130.172 38.5431C130.904 38.5431 131.621 38.6603 132.324 38.8948C133.036 39.12 133.676 39.4483 134.244 39.8798L133.407 41.0054C132.319 40.1987 131.217 39.7954 130.1 39.7954C129.657 39.7954 129.272 39.8563 128.945 39.9783C128.618 40.1002 128.363 40.2738 128.18 40.4989C127.997 40.7146 127.906 40.9679 127.906 41.2587C127.906 41.6621 128.045 41.9716 128.324 42.1874C128.603 42.3938 129.065 42.5438 129.71 42.6377L131.342 42.905C132.41 43.0738 133.195 43.3787 133.695 43.8196C134.196 44.2605 134.446 44.8655 134.446 45.6347C134.446 46.2351 134.278 46.7651 133.941 47.2247C133.604 47.675 133.132 48.0268 132.526 48.28C131.919 48.5333 131.217 48.66 130.418 48.66Z" fill="#212429"/>
<path d="M139.313 48.66C138.6 48.66 137.951 48.4958 137.363 48.1675C136.786 47.8392 136.329 47.3936 135.992 46.8308C135.655 46.2679 135.486 45.6394 135.486 44.9453C135.486 44.2511 135.655 43.6226 135.992 43.0598C136.329 42.4969 136.786 42.0514 137.363 41.7231C137.951 41.3854 138.6 41.2165 139.313 41.2165C140.035 41.2165 140.684 41.3854 141.262 41.7231C141.839 42.0514 142.297 42.4969 142.633 43.0598C142.97 43.6226 143.139 44.2511 143.139 44.9453C143.139 45.6394 142.97 46.2679 142.633 46.8308C142.297 47.3936 141.839 47.8392 141.262 48.1675C140.684 48.4958 140.035 48.66 139.313 48.66ZM139.313 47.4217C139.765 47.4217 140.174 47.3138 140.54 47.0981C140.906 46.873 141.194 46.5728 141.406 46.1976C141.618 45.8223 141.724 45.4002 141.724 44.9312C141.724 44.4715 141.613 44.0588 141.392 43.693C141.18 43.3177 140.891 43.0176 140.525 42.7924C140.169 42.5673 139.765 42.4547 139.313 42.4547C138.86 42.4547 138.451 42.5673 138.085 42.7924C137.729 43.0176 137.44 43.3177 137.219 43.693C137.007 44.0588 136.901 44.4715 136.901 44.9312C136.901 45.4002 137.007 45.8223 137.219 46.1976C137.431 46.5728 137.72 46.873 138.085 47.0981C138.451 47.3138 138.86 47.4217 139.313 47.4217Z" fill="#212429"/>
<path d="M144.504 48.5192V38.6697L145.948 38.4023V48.5192H144.504Z" fill="#212429"/>
<path d="M150.493 48.66C149.925 48.66 149.424 48.5427 148.991 48.3082C148.558 48.0737 148.221 47.7454 147.981 47.3232C147.74 46.8917 147.62 46.3992 147.62 45.8458V41.3572H149.049V45.6066C149.049 46.1694 149.213 46.615 149.54 46.9433C149.877 47.2716 150.324 47.4358 150.883 47.4358C151.277 47.4358 151.629 47.3561 151.937 47.1966C152.245 47.0277 152.495 46.7932 152.688 46.4931V41.3572H154.131V48.5192H152.688V47.7876C152.12 48.3692 151.388 48.66 150.493 48.66Z" fill="#212429"/>
<path d="M158.988 48.6459C158.276 48.6459 157.732 48.4864 157.357 48.1675C156.981 47.8392 156.794 47.3654 156.794 46.7463V42.5392H155.234V41.3572H156.794V39.528L158.223 39.1903V41.3572H160.389V42.5392H158.223V46.4227C158.223 46.7885 158.305 47.0512 158.468 47.2107C158.642 47.3608 158.921 47.4358 159.306 47.4358C159.508 47.4358 159.686 47.4217 159.84 47.3936C160.004 47.3654 160.177 47.3232 160.36 47.2669V48.4489C160.167 48.5146 159.941 48.5615 159.681 48.5896C159.431 48.6271 159.2 48.6459 158.988 48.6459Z" fill="#212429"/>
<path d="M161.452 48.5192V41.3572H162.896V48.5192H161.452ZM162.174 40.2034C161.934 40.2034 161.727 40.119 161.554 39.9501C161.38 39.7719 161.294 39.5655 161.294 39.331C161.294 39.0871 161.38 38.8854 161.554 38.726C161.727 38.5571 161.934 38.4727 162.174 38.4727C162.425 38.4727 162.636 38.5571 162.81 38.726C162.983 38.8854 163.07 39.0871 163.07 39.331C163.07 39.5655 162.983 39.7719 162.81 39.9501C162.636 40.119 162.425 40.2034 162.174 40.2034Z" fill="#212429"/>
<path d="M168.091 48.66C167.379 48.66 166.729 48.4958 166.142 48.1675C165.564 47.8392 165.107 47.3936 164.77 46.8308C164.433 46.2679 164.265 45.6394 164.265 44.9453C164.265 44.2511 164.433 43.6226 164.77 43.0598C165.107 42.4969 165.564 42.0514 166.142 41.7231C166.729 41.3854 167.379 41.2165 168.091 41.2165C168.813 41.2165 169.463 41.3854 170.04 41.7231C170.618 42.0514 171.075 42.4969 171.412 43.0598C171.749 43.6226 171.917 44.2511 171.917 44.9453C171.917 45.6394 171.749 46.2679 171.412 46.8308C171.075 47.3936 170.618 47.8392 170.04 48.1675C169.463 48.4958 168.813 48.66 168.091 48.66ZM168.091 47.4217C168.543 47.4217 168.952 47.3138 169.318 47.0981C169.684 46.873 169.973 46.5728 170.185 46.1976C170.396 45.8223 170.502 45.4002 170.502 44.9312C170.502 44.4715 170.391 44.0588 170.17 43.693C169.958 43.3177 169.67 43.0176 169.304 42.7924C168.948 42.5673 168.543 42.4547 168.091 42.4547C167.639 42.4547 167.229 42.5673 166.864 42.7924C166.508 43.0176 166.219 43.3177 165.997 43.693C165.786 44.0588 165.68 44.4715 165.68 44.9312C165.68 45.4002 165.786 45.8223 165.997 46.1976C166.209 46.5728 166.498 46.873 166.864 47.0981C167.229 47.3138 167.639 47.4217 168.091 47.4217Z" fill="#212429"/>
<path d="M173.282 48.5192V41.3572H174.726V42.0889C175.294 41.5073 176.031 41.2165 176.935 41.2165C177.503 41.2165 177.999 41.3338 178.423 41.5683C178.856 41.8028 179.193 42.1311 179.433 42.5532C179.684 42.9754 179.809 43.4631 179.809 44.0166V48.5192H178.365V44.2558C178.365 43.693 178.201 43.2521 177.874 42.9331C177.556 42.6048 177.109 42.4407 176.531 42.4407C176.146 42.4407 175.8 42.5204 175.492 42.6799C175.184 42.8393 174.928 43.0692 174.726 43.3693V48.5192H173.282Z" fill="#212429"/>
<defs>
<linearGradient id="paint0_linear_1201_1377" x1="36.8211" y1="0.358467" x2="37.653" y2="49.5425" gradientUnits="userSpaceOnUse">
<stop offset="0.244792" stop-color="#845CFF"/>
<stop offset="1" stop-color="#380CC0"/>
</linearGradient>
<linearGradient id="paint1_linear_1201_1377" x1="25.0297" y1="12.3205" x2="25.6624" y2="49.7455" gradientUnits="userSpaceOnUse">
<stop offset="0.244792" stop-color="#845CFF"/>
<stop offset="1" stop-color="#380CC0"/>
</linearGradient>
<linearGradient id="paint2_linear_1201_1377" x1="13.2574" y1="24.8996" x2="13.681" y2="49.9511" gradientUnits="userSpaceOnUse">
<stop offset="0.244792" stop-color="#845CFF"/>
<stop offset="1" stop-color="#380CC0"/>
</linearGradient>
</defs>
</svg>
