<svg width="181" height="50" viewBox="0 0 181 50" fill="none" xmlns="http://www.w3.org/2000/svg">
<path d="M30.8949 7.5946L41.6153 7.41369L29.6133 0.355469L30.8949 7.5946Z" fill="#212429"/>
<path d="M14.6622 49.7591L0.75 43.043L13.5755 42.8266L14.6622 49.7591Z" fill="#212429"/>
<path d="M29.607 0.353703L50.889 40.9858L44.654 49.2465L23.6282 8.42378L29.607 0.353703Z" fill="url(#paint0_linear_1201_398)"/>
<path d="M21.2631 12.2458L35.8248 41.2412L29.8494 49.4975L14.9001 20.0187L21.2631 12.2458Z" fill="url(#paint1_linear_1201_398)"/>
<path d="M12.1697 24.7678L20.777 42.1963L14.6626 49.7582L6.17717 32.0861L12.1697 24.7678Z" fill="url(#paint2_linear_1201_398)"/>
<path d="M65.8281 31.5406V2.83203H88.4101V8.00047H71.8829V14.7669H82.8613V19.7733H71.8829V31.5462H65.8281V31.5406Z" fill="#212429"/>
<path d="M94.3358 7.62425C93.4432 7.62425 92.6814 7.31135 92.0389 6.67996C91.3965 6.04857 91.0781 5.29985 91.0781 4.42261C91.0781 3.51744 91.3965 2.76313 92.0389 2.1485C92.6814 1.53388 93.4432 1.22656 94.3358 1.22656C95.2568 1.22656 96.0244 1.53388 96.6497 2.1485C97.2751 2.76313 97.5878 3.52303 97.5878 4.42261C97.5878 5.29985 97.2751 6.04857 96.6497 6.67996C96.0244 7.31135 95.2568 7.62425 94.3358 7.62425ZM91.4988 31.5387V10.1721H97.2183V31.5443H91.4988V31.5387Z" fill="#212429"/>
<path d="M101.68 31.5401V10.1735H107.399V11.9392C109.042 10.492 111.072 9.76562 113.494 9.76562C115.188 9.76562 116.689 10.1288 117.979 10.8552C119.276 11.5816 120.282 12.5761 121.004 13.8501C121.726 15.124 122.09 16.6047 122.09 18.3033V31.5513H116.37V19.1247C116.37 17.7278 115.967 16.6271 115.16 15.8225C114.352 15.0179 113.255 14.61 111.862 14.61C110.89 14.61 110.026 14.7944 109.275 15.1632C108.525 15.5319 107.899 16.0571 107.399 16.7444V31.5513H101.68V31.5401Z" fill="#212429"/>
<path d="M126.43 31.5396V2.83101L132.149 1.88672V11.8939C133.872 10.5529 135.907 9.88243 138.244 9.88243C140.302 9.88243 142.167 10.3741 143.838 11.3575C145.51 12.3409 146.834 13.6596 147.823 15.3135C148.813 16.9674 149.307 18.8224 149.307 20.873C149.307 22.9237 148.807 24.7787 147.806 26.4326C146.806 28.0865 145.453 29.3996 143.759 30.3718C142.059 31.344 140.171 31.8301 138.085 31.8301C136.999 31.8301 135.941 31.6793 134.912 31.3775C133.883 31.0758 132.934 30.64 132.075 30.0645V31.5396H126.43ZM137.323 27.0696C138.517 27.0696 139.597 26.7958 140.558 26.2482C141.518 25.7006 142.275 24.9631 142.832 24.0356C143.389 23.108 143.668 22.052 143.668 20.8786C143.668 19.7053 143.389 18.6436 142.832 17.6993C142.275 16.7551 141.518 16.0175 140.558 15.4867C139.597 14.9559 138.517 14.6877 137.323 14.6877C136.265 14.6877 135.299 14.8609 134.423 15.2017C133.548 15.5426 132.786 16.0566 132.149 16.7383V25.0637C132.763 25.6951 133.519 26.1868 134.423 26.5388C135.327 26.8908 136.294 27.0696 137.323 27.0696Z" fill="#212429"/>
<path d="M155.605 7.62425C154.713 7.62425 153.951 7.31135 153.308 6.67996C152.666 6.04857 152.348 5.29985 152.348 4.42261C152.348 3.51744 152.666 2.76313 153.308 2.1485C153.945 1.53388 154.713 1.22656 155.605 1.22656C156.526 1.22656 157.294 1.53388 157.919 2.1485C158.545 2.76313 158.857 3.52303 158.857 4.42261C158.857 5.29985 158.545 6.04857 157.919 6.67996C157.294 7.31135 156.521 7.62425 155.605 7.62425ZM152.768 31.5387V10.1721H158.488V31.5443H152.768V31.5387Z" fill="#212429"/>
<path d="M161.824 31.5402V27.5619L172.757 14.8838H161.904V10.168H180.057V14.1463L169.124 26.8187H180.353V31.5346H161.824V31.5402Z" fill="#212429"/>
<path d="M66.418 48.3739V38.5365H70.7928C71.457 38.5365 72.0345 38.6443 72.5255 38.8598C73.0164 39.0753 73.3966 39.3798 73.6661 39.7732C73.9356 40.1574 74.0704 40.6118 74.0704 41.1364C74.0704 41.6142 73.9452 42.0359 73.695 42.4012C73.4447 42.7666 73.0934 43.0571 72.641 43.2726C73.2089 43.4693 73.6517 43.7691 73.9693 44.172C74.2966 44.5655 74.4602 45.0292 74.4602 45.5633C74.4602 46.1348 74.3158 46.6313 74.0271 47.0529C73.7479 47.4745 73.3436 47.8024 72.8142 48.0367C72.2944 48.2615 71.6832 48.3739 70.9805 48.3739H66.418ZM67.934 42.7104H70.7062C71.2741 42.7104 71.7265 42.5793 72.0634 42.3169C72.4003 42.0546 72.5688 41.6986 72.5688 41.2489C72.5688 40.7991 72.4003 40.4431 72.0634 40.1808C71.7265 39.9185 71.2741 39.7873 70.7062 39.7873H67.934V42.7104ZM67.934 47.1232H70.865C71.5003 47.1232 72.0009 46.978 72.3666 46.6875C72.742 46.3971 72.9297 46.0036 72.9297 45.507C72.9297 45.0199 72.742 44.6311 72.3666 44.3406C72.0009 44.0408 71.5003 43.8909 70.865 43.8909H67.934V47.1232Z" fill="#212429"/>
<path d="M78.6349 48.5145C78.0669 48.5145 77.5664 48.3974 77.1333 48.1631C76.7001 47.9289 76.3632 47.601 76.1226 47.1794C75.8819 46.7484 75.7616 46.2566 75.7616 45.7038V41.2208H77.191V45.4649C77.191 46.027 77.3546 46.4721 77.6819 46.8C78.0188 47.1279 78.4664 47.2918 79.0247 47.2918C79.4194 47.2918 79.7707 47.2122 80.0787 47.0529C80.3867 46.8843 80.637 46.6501 80.8295 46.3503V41.2208H82.2734V48.3739H80.8295V47.6432C80.2616 48.224 79.53 48.5145 78.6349 48.5145Z" fill="#212429"/>
<path d="M86.5094 48.5145C85.8741 48.5145 85.2773 48.4255 84.719 48.2475C84.1703 48.0601 83.6939 47.7978 83.2896 47.4605L84.0837 46.5329C84.4591 46.8234 84.8441 47.0482 85.2388 47.2075C85.6431 47.3574 86.0522 47.4324 86.4661 47.4324C86.9858 47.4324 87.4094 47.334 87.7366 47.1372C88.0639 46.9405 88.2276 46.6829 88.2276 46.3643C88.2276 46.102 88.1313 45.8959 87.9388 45.746C87.7463 45.5961 87.4479 45.493 87.0436 45.4368L85.7153 45.2541C84.9837 45.151 84.435 44.9309 84.0693 44.5936C83.7035 44.2563 83.5206 43.8066 83.5206 43.2444C83.5206 42.8135 83.6409 42.4387 83.8816 42.1202C84.1222 41.7923 84.4591 41.5393 84.8923 41.3613C85.3254 41.1739 85.8308 41.0802 86.4083 41.0802C86.9377 41.0802 87.4479 41.1552 87.9388 41.3051C88.4297 41.455 88.9014 41.6892 89.3538 42.0077L88.6174 42.9353C88.2131 42.6729 87.8185 42.4809 87.4334 42.3591C87.058 42.2373 86.6778 42.1764 86.2928 42.1764C85.85 42.1764 85.4939 42.2701 85.2243 42.4575C84.9548 42.6355 84.8201 42.8697 84.8201 43.1601C84.8201 43.4225 84.9115 43.6286 85.0944 43.7785C85.2869 43.919 85.5997 44.0174 86.0329 44.0736L87.3612 44.2563C88.0928 44.3594 88.6463 44.5795 89.0217 44.9168C89.3971 45.2447 89.5848 45.6897 89.5848 46.2519C89.5848 46.6829 89.45 47.0717 89.1805 47.4183C88.911 47.7556 88.5452 48.0226 88.0832 48.2194C87.6211 48.4161 87.0965 48.5145 86.5094 48.5145Z" fill="#212429"/>
<path d="M90.6943 48.3739V41.2208H92.1381V48.3739H90.6943ZM91.4162 40.0684C91.1756 40.0684 90.9686 39.9841 90.7954 39.8154C90.6221 39.6374 90.5355 39.4313 90.5355 39.1971C90.5355 38.9535 90.6221 38.752 90.7954 38.5928C90.9686 38.4241 91.1756 38.3398 91.4162 38.3398C91.6665 38.3398 91.8782 38.4241 92.0515 38.5928C92.2248 38.752 92.3114 38.9535 92.3114 39.1971C92.3114 39.4313 92.2248 39.6374 92.0515 39.8154C91.8782 39.9841 91.6665 40.0684 91.4162 40.0684Z" fill="#212429"/>
<path d="M93.8386 48.3739V41.2208H95.2825V41.9515C95.8504 41.3707 96.5867 41.0802 97.4915 41.0802C98.0595 41.0802 98.5552 41.1973 98.9787 41.4316C99.4119 41.6658 99.7488 41.9937 99.9894 42.4153C100.24 42.8369 100.365 43.3241 100.365 43.8769V48.3739H98.921V44.1158C98.921 43.5536 98.7573 43.1133 98.43 42.7947C98.1124 42.4668 97.6648 42.3029 97.0873 42.3029C96.7022 42.3029 96.3557 42.3825 96.0477 42.5418C95.7397 42.701 95.4846 42.9306 95.2825 43.2304V48.3739H93.8386Z" fill="#212429"/>
<path d="M105.554 48.5004C104.832 48.5004 104.177 48.3365 103.59 48.0086C103.013 47.6806 102.551 47.2356 102.204 46.6735C101.867 46.1113 101.699 45.4836 101.699 44.7903C101.699 44.1064 101.862 43.488 102.19 42.9353C102.517 42.3731 102.96 41.9281 103.518 41.6002C104.076 41.2629 104.697 41.0943 105.38 41.0943C106.064 41.0943 106.67 41.2629 107.2 41.6002C107.729 41.9281 108.148 42.3778 108.456 42.9493C108.774 43.5115 108.932 44.1486 108.932 44.8606V45.2541H103.143C103.22 45.6476 103.369 45.9989 103.59 46.3081C103.821 46.6173 104.11 46.8609 104.456 47.0389C104.813 47.2169 105.198 47.3059 105.612 47.3059C105.968 47.3059 106.309 47.2544 106.637 47.1513C106.974 47.0389 107.253 46.8796 107.474 46.6735L108.398 47.5588C107.965 47.8774 107.517 48.1163 107.055 48.2756C106.603 48.4255 106.102 48.5004 105.554 48.5004ZM103.157 44.2001H107.503C107.445 43.8253 107.31 43.4974 107.099 43.2163C106.897 42.9259 106.641 42.701 106.333 42.5418C106.035 42.3731 105.708 42.2888 105.352 42.2888C104.986 42.2888 104.649 42.3684 104.341 42.5277C104.033 42.687 103.773 42.9118 103.561 43.2023C103.359 43.4834 103.224 43.816 103.157 44.2001Z" fill="#212429"/>
<path d="M112.905 48.5145C112.269 48.5145 111.673 48.4255 111.114 48.2475C110.566 48.0601 110.089 47.7978 109.685 47.4605L110.479 46.5329C110.854 46.8234 111.24 47.0482 111.634 47.2075C112.038 47.3574 112.448 47.4324 112.861 47.4324C113.381 47.4324 113.805 47.334 114.132 47.1372C114.459 46.9405 114.623 46.6829 114.623 46.3643C114.623 46.102 114.527 45.8959 114.334 45.746C114.142 45.5961 113.843 45.493 113.439 45.4368L112.111 45.2541C111.379 45.151 110.83 44.9309 110.465 44.5936C110.099 44.2563 109.916 43.8066 109.916 43.2444C109.916 42.8135 110.036 42.4387 110.277 42.1202C110.518 41.7923 110.854 41.5393 111.288 41.3613C111.721 41.1739 112.226 41.0802 112.804 41.0802C113.333 41.0802 113.843 41.1552 114.334 41.3051C114.825 41.455 115.297 41.6892 115.749 42.0077L115.013 42.9353C114.609 42.6729 114.214 42.4809 113.829 42.3591C113.453 42.2373 113.073 42.1764 112.688 42.1764C112.245 42.1764 111.889 42.2701 111.62 42.4575C111.35 42.6355 111.215 42.8697 111.215 43.1601C111.215 43.4225 111.307 43.6286 111.49 43.7785C111.682 43.919 111.995 44.0174 112.428 44.0736L113.757 44.2563C114.488 44.3594 115.042 44.5795 115.417 44.9168C115.792 45.2447 115.98 45.6897 115.98 46.2519C115.98 46.6829 115.845 47.0717 115.576 47.4183C115.306 47.7556 114.941 48.0226 114.479 48.2194C114.017 48.4161 113.492 48.5145 112.905 48.5145Z" fill="#212429"/>
<path d="M119.616 48.5145C118.981 48.5145 118.384 48.4255 117.826 48.2475C117.277 48.0601 116.801 47.7978 116.397 47.4605L117.191 46.5329C117.566 46.8234 117.951 47.0482 118.346 47.2075C118.75 47.3574 119.159 47.4324 119.573 47.4324C120.093 47.4324 120.516 47.334 120.844 47.1372C121.171 46.9405 121.335 46.6829 121.335 46.3643C121.335 46.102 121.238 45.8959 121.046 45.746C120.853 45.5961 120.555 45.493 120.151 45.4368L118.822 45.2541C118.091 45.151 117.542 44.9309 117.176 44.5936C116.811 44.2563 116.628 43.8066 116.628 43.2444C116.628 42.8135 116.748 42.4387 116.989 42.1202C117.229 41.7923 117.566 41.5393 117.999 41.3613C118.432 41.1739 118.938 41.0802 119.515 41.0802C120.045 41.0802 120.555 41.1552 121.046 41.3051C121.537 41.455 122.008 41.6892 122.461 42.0077L121.724 42.9353C121.32 42.6729 120.925 42.4809 120.54 42.3591C120.165 42.2373 119.785 42.1764 119.4 42.1764C118.957 42.1764 118.601 42.2701 118.331 42.4575C118.062 42.6355 117.927 42.8697 117.927 43.1601C117.927 43.4225 118.019 43.6286 118.201 43.7785C118.394 43.919 118.707 44.0174 119.14 44.0736L120.468 44.2563C121.2 44.3594 121.753 44.5795 122.129 44.9168C122.504 45.2447 122.692 45.6897 122.692 46.2519C122.692 46.6829 122.557 47.0717 122.288 47.4183C122.018 47.7556 121.652 48.0226 121.19 48.2194C120.728 48.4161 120.204 48.5145 119.616 48.5145Z" fill="#212429"/>
<path d="M130.414 48.5145C129.605 48.5145 128.826 48.3599 128.075 48.0507C127.324 47.7415 126.66 47.3059 126.082 46.7438L127.006 45.7038C127.555 46.2285 128.113 46.6173 128.681 46.8702C129.259 47.1232 129.86 47.2497 130.486 47.2497C130.977 47.2497 131.405 47.1841 131.771 47.0529C132.147 46.9124 132.435 46.7156 132.637 46.4627C132.84 46.2097 132.941 45.924 132.941 45.6054C132.941 45.1651 132.782 44.8278 132.464 44.5936C132.147 44.3594 131.622 44.1813 130.89 44.0595L129.201 43.7925C128.277 43.6333 127.584 43.3428 127.122 42.9212C126.67 42.4996 126.443 41.9375 126.443 41.2348C126.443 40.6727 126.597 40.1808 126.905 39.7592C127.213 39.3282 127.647 38.9956 128.205 38.7614C128.773 38.5272 129.427 38.4101 130.168 38.4101C130.9 38.4101 131.617 38.5272 132.32 38.7614C133.032 38.9863 133.672 39.3142 134.24 39.7451L133.403 40.8694C132.315 40.0637 131.213 39.6608 130.096 39.6608C129.654 39.6608 129.268 39.7217 128.941 39.8435C128.614 39.9653 128.359 40.1386 128.176 40.3635C127.993 40.579 127.902 40.8319 127.902 41.1224C127.902 41.5252 128.041 41.8344 128.32 42.0499C128.599 42.256 129.062 42.4059 129.706 42.4996L131.338 42.7666C132.406 42.9353 133.191 43.2398 133.691 43.6801C134.192 44.1204 134.442 44.7247 134.442 45.493C134.442 46.0926 134.274 46.622 133.937 47.081C133.6 47.5307 133.128 47.8821 132.522 48.135C131.916 48.388 131.213 48.5145 130.414 48.5145Z" fill="#212429"/>
<path d="M139.309 48.5145C138.596 48.5145 137.947 48.3505 137.36 48.0226C136.782 47.6947 136.325 47.2497 135.988 46.6875C135.651 46.1254 135.483 45.4977 135.483 44.8044C135.483 44.1111 135.651 43.4834 135.988 42.9212C136.325 42.3591 136.782 41.9141 137.36 41.5861C137.947 41.2489 138.596 41.0802 139.309 41.0802C140.031 41.0802 140.68 41.2489 141.258 41.5861C141.835 41.9141 142.293 42.3591 142.63 42.9212C142.966 43.4834 143.135 44.1111 143.135 44.8044C143.135 45.4977 142.966 46.1254 142.63 46.6875C142.293 47.2497 141.835 47.6947 141.258 48.0226C140.68 48.3505 140.031 48.5145 139.309 48.5145ZM139.309 47.2778C139.761 47.2778 140.17 47.17 140.536 46.9546C140.902 46.7297 141.191 46.4299 141.402 46.0551C141.614 45.6804 141.72 45.2588 141.72 44.7903C141.72 44.3312 141.609 43.919 141.388 43.5536C141.176 43.1789 140.887 42.8791 140.522 42.6542C140.165 42.4293 139.761 42.3169 139.309 42.3169C138.856 42.3169 138.447 42.4293 138.081 42.6542C137.725 42.8791 137.437 43.1789 137.215 43.5536C137.003 43.919 136.897 44.3312 136.897 44.7903C136.897 45.2588 137.003 45.6804 137.215 46.0551C137.427 46.4299 137.716 46.7297 138.081 46.9546C138.447 47.17 138.856 47.2778 139.309 47.2778Z" fill="#212429"/>
<path d="M144.5 48.3739V38.5365L145.944 38.2695V48.3739H144.5Z" fill="#212429"/>
<path d="M150.489 48.5145C149.921 48.5145 149.421 48.3974 148.987 48.1631C148.554 47.9289 148.217 47.601 147.977 47.1794C147.736 46.7484 147.616 46.2566 147.616 45.7038V41.2208H149.045V45.4649C149.045 46.027 149.209 46.4721 149.536 46.8C149.873 47.1279 150.321 47.2918 150.879 47.2918C151.273 47.2918 151.625 47.2122 151.933 47.0529C152.241 46.8843 152.491 46.6501 152.684 46.3503V41.2208H154.127V48.3739H152.684V47.6432C152.116 48.224 151.384 48.5145 150.489 48.5145Z" fill="#212429"/>
<path d="M158.984 48.5004C158.272 48.5004 157.728 48.3412 157.353 48.0226C156.977 47.6947 156.79 47.2216 156.79 46.6032V42.4012H155.23V41.2208H156.79V39.3938L158.219 39.0565V41.2208H160.385V42.4012H158.219V46.28C158.219 46.6454 158.301 46.9077 158.465 47.067C158.638 47.2169 158.917 47.2918 159.302 47.2918C159.504 47.2918 159.682 47.2778 159.836 47.2497C160 47.2216 160.173 47.1794 160.356 47.1232V48.3037C160.163 48.3693 159.937 48.4161 159.677 48.4442C159.427 48.4817 159.196 48.5004 158.984 48.5004Z" fill="#212429"/>
<path d="M161.449 48.3739V41.2208H162.892V48.3739H161.449ZM162.171 40.0684C161.93 40.0684 161.723 39.9841 161.55 39.8154C161.376 39.6374 161.29 39.4313 161.29 39.1971C161.29 38.9535 161.376 38.752 161.55 38.5928C161.723 38.4241 161.93 38.3398 162.171 38.3398C162.421 38.3398 162.633 38.4241 162.806 38.5928C162.979 38.752 163.066 38.9535 163.066 39.1971C163.066 39.4313 162.979 39.6374 162.806 39.8154C162.633 39.9841 162.421 40.0684 162.171 40.0684Z" fill="#212429"/>
<path d="M168.087 48.5145C167.375 48.5145 166.725 48.3505 166.138 48.0226C165.56 47.6947 165.103 47.2497 164.766 46.6875C164.429 46.1254 164.261 45.4977 164.261 44.8044C164.261 44.1111 164.429 43.4834 164.766 42.9212C165.103 42.3591 165.56 41.9141 166.138 41.5861C166.725 41.2489 167.375 41.0802 168.087 41.0802C168.809 41.0802 169.459 41.2489 170.036 41.5861C170.614 41.9141 171.071 42.3591 171.408 42.9212C171.745 43.4834 171.913 44.1111 171.913 44.8044C171.913 45.4977 171.745 46.1254 171.408 46.6875C171.071 47.2497 170.614 47.6947 170.036 48.0226C169.459 48.3505 168.809 48.5145 168.087 48.5145ZM168.087 47.2778C168.539 47.2778 168.949 47.17 169.314 46.9546C169.68 46.7297 169.969 46.4299 170.181 46.0551C170.392 45.6804 170.498 45.2588 170.498 44.7903C170.498 44.3312 170.388 43.919 170.166 43.5536C169.954 43.1789 169.666 42.8791 169.3 42.6542C168.944 42.4293 168.539 42.3169 168.087 42.3169C167.635 42.3169 167.226 42.4293 166.86 42.6542C166.504 42.8791 166.215 43.1789 165.993 43.5536C165.782 43.919 165.676 44.3312 165.676 44.7903C165.676 45.2588 165.782 45.6804 165.993 46.0551C166.205 46.4299 166.494 46.7297 166.86 46.9546C167.226 47.17 167.635 47.2778 168.087 47.2778Z" fill="#212429"/>
<path d="M173.279 48.3739V41.2208H174.722V41.9515C175.29 41.3707 176.027 41.0802 176.932 41.0802C177.499 41.0802 177.995 41.1973 178.419 41.4316C178.852 41.6658 179.189 41.9937 179.429 42.4153C179.68 42.8369 179.805 43.3241 179.805 43.8769V48.3739H178.361V44.1158C178.361 43.5536 178.197 43.1133 177.87 42.7947C177.552 42.4668 177.105 42.3029 176.527 42.3029C176.142 42.3029 175.796 42.3825 175.488 42.5418C175.18 42.701 174.925 42.9306 174.722 43.2304V48.3739H173.279Z" fill="#212429"/>
<defs>
<linearGradient id="paint0_linear_1201_398" x1="36.8168" y1="0.23203" x2="37.6459" y2="49.3647" gradientUnits="userSpaceOnUse">
<stop offset="0.244792" stop-color="#E87556"/>
<stop offset="1" stop-color="#99361B"/>
</linearGradient>
<linearGradient id="paint1_linear_1201_398" x1="25.0293" y1="12.1822" x2="25.6601" y2="49.5681" gradientUnits="userSpaceOnUse">
<stop offset="0.244792" stop-color="#E87556"/>
<stop offset="1" stop-color="#99361B"/>
</linearGradient>
<linearGradient id="paint2_linear_1201_398" x1="13.2533" y1="24.7495" x2="13.6755" y2="49.7748" gradientUnits="userSpaceOnUse">
<stop offset="0.244792" stop-color="#E87556"/>
<stop offset="1" stop-color="#99361B"/>
</linearGradient>
</defs>
</svg>
